<?xml version="1.0" encoding="UTF-8" standalone="no"?>
<!-- Created with Inkscape (http://www.inkscape.org/) -->

<svg
   xmlns:dc="http://purl.org/dc/elements/1.1/"
   xmlns:cc="http://creativecommons.org/ns#"
   xmlns:rdf="http://www.w3.org/1999/02/22-rdf-syntax-ns#"
   xmlns:svg="http://www.w3.org/2000/svg"
   xmlns="http://www.w3.org/2000/svg"
   xmlns:sodipodi="http://sodipodi.sourceforge.net/DTD/sodipodi-0.dtd"
   xmlns:inkscape="http://www.inkscape.org/namespaces/inkscape"
   width="210mm"
   height="297mm"
   viewBox="0 0 744.09448819 1052.3622047"
   id="svg2"
   version="1.1"
   inkscape:version="0.91 r13725"
   sodipodi:docname="tradeqwik-logo-v1.svg">
  <defs
     id="defs4">
    <filter
       style="color-interpolation-filters:sRGB;"
       inkscape:label="Invert"
       id="filter4438">
      <feColorMatrix
         type="hueRotate"
         values="180"
         result="color1"
         id="feColorMatrix4440" />
      <feColorMatrix
         values="-1 0 0 0 1 0 0 -1 0 1 0 -1 0 0 1 -0.21 -0.72 -0.07 2 0 "
         result="fbSourceGraphic"
         id="feColorMatrix4442" />
      <feColorMatrix
         result="fbSourceGraphicAlpha"
         in="fbSourceGraphic"
         values="0 0 0 -1 0 0 0 0 -1 0 0 0 0 -1 0 0 0 0 1 0"
         id="feColorMatrix4444" />
      <feColorMatrix
         id="feColorMatrix4446"
         type="hueRotate"
         values="180"
         result="color1"
         in="fbSourceGraphic" />
      <feColorMatrix
         id="feColorMatrix4448"
         values="-1 0 0 0 1 0 0 -1 0 1 0 -1 0 0 1 -0.21 -0.72 -0.07 2 0 "
         result="fbSourceGraphic" />
      <feColorMatrix
         result="fbSourceGraphicAlpha"
         in="fbSourceGraphic"
         values="0 0 0 -1 0 0 0 0 -1 0 0 0 0 -1 0 0 0 0 1 0"
         id="feColorMatrix4490" />
      <feColorMatrix
         id="feColorMatrix4492"
         values="1 0 0 0 0 0 0 1 0 0 0 1 0 0 0 -0.21 -0.72 -0.07 1 0 "
         result="color2"
         in="fbSourceGraphic" />
    </filter>
  </defs>
  <sodipodi:namedview
     id="base"
     pagecolor="#ffffff"
     bordercolor="#666666"
     borderopacity="1.0"
     inkscape:pageopacity="0.0"
     inkscape:pageshadow="2"
     inkscape:zoom="1.4"
     inkscape:cx="371.15751"
     inkscape:cy="409.40944"
     inkscape:document-units="px"
     inkscape:current-layer="layer1"
     showgrid="false"
     inkscape:window-width="1920"
     inkscape:window-height="1018"
     inkscape:window-x="-8"
     inkscape:window-y="-8"
     inkscape:window-maximized="1" />
  <metadata
     id="metadata7">
    <rdf:RDF>
      <cc:Work
         rdf:about="">
        <dc:format>image/svg+xml</dc:format>
        <dc:type
           rdf:resource="http://purl.org/dc/dcmitype/StillImage" />
        <dc:title></dc:title>
      </cc:Work>
    </rdf:RDF>
  </metadata>
  <g
     inkscape:label="Layer 1"
     inkscape:groupmode="layer"
     id="layer1">
    <path
       style="fill:#55acee;fill-opacity:1;fill-rule:evenodd;stroke:none;stroke-width:0.1;stroke-linecap:butt;stroke-linejoin:miter;stroke-miterlimit:4;stroke-dasharray:none;stroke-opacity:1;filter:url(#filter4438)"
       d="m 279.49279,700.41181 c 27.04164,-26.36183 20.61682,-55.36505 0,-72.72265 -25.05489,-17.62943 -46.75359,-13.98681 -66.35942,2.27259 -23.15425,20.35385 -14.81959,68.76971 16.06078,86.66253 5.81231,3.98048 124.65778,8.60112 131.68009,10.16156 l 83.2289,-82.92236 167.31218,-8.5453 c 0,0 60.78745,-35.43274 58.96939,-35.43274 -1.81807,0 -316.36961,96.78713 -316.36961,96.78713 -2.25968,3.53083 -114.33252,45.27027 -123.87039,36.22125 -32.07371,-10.0679 -67.33406,-60.41522 -31.58822,-113.51562 38.03442,-39.11946 72.99778,-23.05932 96.84435,-4.86996 30.20863,28.61802 24.37497,68.00802 10.90841,85.44911 z"
       id="path4179"
       inkscape:connector-curvature="0"
       sodipodi:nodetypes="cccccccscccccc" />
    <path
       style="fill:#404a54;fill-opacity:1;fill-rule:evenodd;stroke:none;stroke-width:0.1;stroke-linecap:butt;stroke-linejoin:miter;stroke-miterlimit:4;stroke-dasharray:none;stroke-opacity:1"
       d="m 238.81354,689.73067 -0.90902,14.99905 c -7.787,-0.71805 -14.00543,-5.09606 -19.99872,-9.99936 l 9.54484,-10.68114 c 3.28669,2.14428 5.80719,4.67168 11.3629,5.68145 z"
       id="path4181"
       inkscape:connector-curvature="0"
       sodipodi:nodetypes="ccccc" />
    <path
       style="fill:#404a54;fill-opacity:1;fill-rule:evenodd;stroke:none;stroke-width:0.1;stroke-linecap:butt;stroke-linejoin:miter;stroke-miterlimit:4;stroke-dasharray:none;stroke-opacity:1"
       d="m 213.13337,689.27615 11.13566,-10.22663 c -1.8742,-2.57833 -3.27208,-7.06199 -4.54518,-12.04468 l -14.09,-0.22729 c 0.33488,6.63357 1.20229,13.48012 7.49952,22.4986 z"
       id="path4183"
       inkscape:connector-curvature="0"
       sodipodi:nodetypes="ccccc" />
    <path
       style="fill:#404a54;fill-opacity:1;fill-rule:evenodd;stroke:none;stroke-width:0.1;stroke-linecap:butt;stroke-linejoin:miter;stroke-miterlimit:4;stroke-dasharray:none;stroke-opacity:1"
       d="m 205.86109,659.95983 15.22632,0.45451 c -0.48722,-5.06475 2.08648,-8.29297 4.54516,-11.59017 l -12.4992,-8.63582 c -5.05574,5.12849 -7.6694,11.61366 -7.27228,19.77148 z"
       id="path4185"
       inkscape:connector-curvature="0"
       sodipodi:nodetypes="ccccc" />
    <path
       style="fill:#404a54;fill-opacity:1;fill-rule:evenodd;stroke:none;stroke-width:0.1;stroke-linecap:butt;stroke-linejoin:miter;stroke-miterlimit:4;stroke-dasharray:none;stroke-opacity:1"
       d="m 217.67853,634.5069 12.27195,9.77212 c 2.64028,-2.54326 5.85949,-4.79704 10.90838,-6.13599 l -3.18161,-15.22629 c -6.16486,2.02501 -12.08627,3.15733 -19.99872,11.59016 z"
       id="path4187"
       inkscape:connector-curvature="0"
       sodipodi:nodetypes="ccccc" />
    <path
       style="fill:#ec4848;fill-opacity:1;fill-rule:evenodd;stroke:none;stroke-width:0.1;stroke-linecap:butt;stroke-linejoin:miter;stroke-miterlimit:4;stroke-dasharray:none;stroke-opacity:1"
       d="m 243.58596,622.91674 3.8634,14.31727 c 3.20338,0.16239 6.94468,0.93463 12.4992,2.27259 l 6.36323,-12.27195 c -7.57528,-5.04353 -15.15055,-4.57695 -22.72583,-4.31791 z"
       id="path4189"
       inkscape:connector-curvature="0"
       sodipodi:nodetypes="ccccc" />
    <path
       style="fill:#ec4848;fill-opacity:1;fill-rule:evenodd;stroke:none;stroke-width:0.1;stroke-linecap:butt;stroke-linejoin:miter;stroke-miterlimit:4;stroke-dasharray:none;stroke-opacity:1"
       d="m 272.44777,629.73448 -7.95403,13.63549 c 3.50082,2.71091 6.57192,5.85153 8.86306,9.77212 l 13.40824,-6.13597 c -3.1626,-8.5744 -8.80121,-12.8158 -14.31727,-17.27164 z"
       id="path4191"
       inkscape:connector-curvature="0"
       sodipodi:nodetypes="ccccc" />
    <path
       style="fill:#ec4848;fill-opacity:1;fill-rule:evenodd;stroke:none;stroke-width:0.1;stroke-linecap:butt;stroke-linejoin:miter;stroke-miterlimit:4;stroke-dasharray:none;stroke-opacity:1"
       d="m 246.99485,668.59565 c 2.57324,-4.54515 10.23442,-9.09033 16.8171,-13.63549 -7.28503,7.06416 -14.28985,13.70798 -16.8171,13.63549 z"
       id="path4193"
       inkscape:connector-curvature="0"
       sodipodi:nodetypes="ccc" />
    <path
       style="fill:#404a54;fill-opacity:1;fill-rule:evenodd;stroke:none;stroke-width:0.1;stroke-linecap:butt;stroke-linejoin:miter;stroke-miterlimit:4;stroke-dasharray:none;stroke-opacity:1"
       d="m 244.93484,595.27566 0.11369,-45.36339 -25.04397,0.27433 c -4.05024,-2.47277 -4.60543,-5.97604 -4.54911,-7.66366 23.98268,-4.31054 46.04057,-3.32793 67.10461,0.38789 1.11218,0.55611 -2.81627,8.64772 -6.14773,7.75775 -1.49901,-0.40043 -23.99394,-0.48198 -23.99394,-0.48198 l -0.50149,45.47698 z"
       id="path4195"
       inkscape:connector-curvature="0"
       sodipodi:nodetypes="cccccsccc" />
    <path
       style="fill:#404a54;fill-opacity:1;fill-rule:evenodd;stroke:none;stroke-width:0.05196206;stroke-linecap:butt;stroke-linejoin:miter;stroke-miterlimit:4;stroke-dasharray:none;stroke-opacity:1"
       d="m 216.37419,604.39264 -9.72304,-16.93866 -9.27884,5.49353 c -2.0425,-0.0501 -3.00365,-1.23684 -3.34594,-1.87817 8.01424,-6.77 16.45025,-11.15205 25.10409,-14.30104 0.53441,-0.0321 0.81154,3.83064 -0.62222,4.21598 -0.6451,0.17333 -9.05012,4.98549 -9.05012,4.98549 l 9.60286,17.06448 z"
       id="path4195-1"
       inkscape:connector-curvature="0"
       sodipodi:nodetypes="cccccsccc" />
    <text
       xml:space="preserve"
       style="font-style:normal;font-weight:normal;font-size:75.21272278px;line-height:125%;font-family:sans-serif;letter-spacing:0px;word-spacing:0px;fill:#404a54;fill-opacity:1;stroke:none;stroke-width:1px;stroke-linecap:butt;stroke-linejoin:miter;stroke-opacity:1"
       x="281.95767"
       y="602.72986"
       id="text4212"
       sodipodi:linespacing="125%"><tspan
         sodipodi:role="line"
         id="tspan4214"
         x="281.95767"
         y="602.72986"
         style="font-style:normal;font-variant:normal;font-weight:normal;font-stretch:normal;font-family:Ubuntu;-inkscape-font-specification:Ubuntu;fill:#404a54;fill-opacity:1">RADE</tspan></text>
    <text
       xml:space="preserve"
       style="font-style:normal;font-weight:normal;font-size:71.17823029px;line-height:125%;font-family:sans-serif;letter-spacing:0px;word-spacing:0px;fill:#404a54;fill-opacity:1;stroke:none;stroke-width:1px;stroke-linecap:butt;stroke-linejoin:miter;stroke-opacity:1"
       x="484.27112"
       y="599.29071"
       id="text4212-1"
       sodipodi:linespacing="125%"><tspan
         sodipodi:role="line"
         id="tspan4214-2"
         x="484.27112"
         y="599.29071"
         style="font-style:normal;font-variant:normal;font-weight:500;font-stretch:normal;font-family:Ubuntu;-inkscape-font-specification:'Ubuntu Medium';fill:#404a54;fill-opacity:1">QWIK</tspan></text>
  </g>
</svg>
